<svg width="20" height="20" viewBox="0 0 20 20" fill="none" xmlns="http://www.w3.org/2000/svg">
<path d="M4.0548 18C4.0548 16.8954 4.9625 16 6.08221 16C7.20191 16 8.10961 16.8954 8.10961 18C8.10961 19.1046 7.20191 20 6.08221 20C4.9625 20 4.0548 19.1046 4.0548 18ZM14.1918 18C14.1918 16.8954 15.0995 16 16.2192 16C17.3389 16 18.2466 16.8954 18.2466 18C18.2466 19.1046 17.3389 20 16.2192 20C15.0995 20 14.1918 19.1046 14.1918 18ZM1.28594 1.66459e-06C1.51094 1.2603e-06 1.73525 -0.000446859 1.92643 0.0136735C2.07928 0.0249644 2.25065 0.0477191 2.43031 0.103517L2.61246 0.1709L2.74016 0.231447C2.98946 0.361464 3.20799 0.54175 3.38263 0.759767L3.46678 0.872072L3.56676 1.03613C3.65491 1.20001 3.70894 1.36181 3.74792 1.50781C3.79665 1.69041 3.83689 1.90841 3.8776 2.12598L4.04095 3H17.221C17.5508 3 17.865 2.99897 18.1239 3.02149C18.391 3.04474 18.7153 3.10037 19.0267 3.28418C19.4454 3.53152 19.7638 3.92112 19.9157 4.38477C20.0273 4.72558 20.0082 5.04992 19.9711 5.31152C19.9351 5.56548 19.864 5.86714 19.7899 6.18359V6.18457L18.1991 12.9844L18.1961 12.998L18.1951 13.001C18.1479 13.2029 18.101 13.405 18.0476 13.5752C17.9894 13.7611 17.9047 13.972 17.7526 14.1777C17.5388 14.4671 17.2496 14.6974 16.9112 14.8398C16.6733 14.9399 16.4448 14.9731 16.2479 14.9873C16.1558 14.9939 16.0558 14.9975 15.9519 14.999L15.6332 15H5.06851C4.57966 15 4.1604 14.6559 4.07163 14.1816L1.88386 2.48926C1.83769 2.24254 1.81175 2.11095 1.78685 2.01758C1.78602 2.01449 1.78465 2.01159 1.78388 2.00879C1.78106 2.00856 1.77805 2.00804 1.77497 2.00781C1.67692 2.00058 1.54092 2 1.28594 2H1.0137C0.453849 2 0 1.55229 0 1C0 0.447717 0.453849 1.66459e-06 1.0137 1.66459e-06H1.28594ZM5.91194 13H15.6332C15.8775 13 16.0071 12.9989 16.1004 12.9922C16.1028 12.992 16.1051 12.9914 16.1074 12.9912C16.1081 12.989 16.1096 12.9868 16.1103 12.9844C16.1378 12.8966 16.1674 12.7725 16.2222 12.5381L16.2232 12.5332L17.814 5.73535V5.7334C17.8963 5.38184 17.9427 5.18144 17.9635 5.03516C17.9645 5.02844 17.9637 5.02158 17.9645 5.01563C17.9586 5.01504 17.9523 5.01425 17.9457 5.01367C17.7967 5.00071 17.5878 5 17.221 5H4.41514L5.91194 13Z" fill="black"/>
</svg>