<svg width="20" height="20" viewBox="0 0 20 20" fill="none" xmlns="http://www.w3.org/2000/svg">
<path d="M14 8.00003C14 4.68632 11.3137 2.00003 8 2.00003C4.68629 2.00003 2 4.68632 2 8.00003C2 11.3137 4.68629 14 8 14C11.3137 14 14 11.3137 14 8.00003ZM16 8.00003C16 9.84863 15.3703 11.5487 14.3174 12.9034L19.707 18.293C20.0976 18.6835 20.0976 19.3165 19.707 19.7071C19.3165 20.0976 18.6835 20.0976 18.293 19.7071L12.9033 14.3174C11.5487 15.3704 9.8486 16 8 16C3.58172 16 0 12.4183 0 8.00003C0 3.58175 3.58172 3.05176e-05 8 3.05176e-05C12.4183 3.05176e-05 16 3.58175 16 8.00003Z" fill="black"/>
</svg>